{"accessors":[{"name":"grp1_1_positions","componentType":5126,"count":642,"min":[-0.5,0,-0.2016890048980713],"max":[0.5,0.4264250099658966,0.2016890048980713],"type":"VEC3","bufferView":0,"byteOffset":0},{"name":"grp1_1_normals","componentType":5126,"count":642,"min":[-0.9991629719734192,-0.9999899864196777,-0.9993799924850464],"max":[0.9971870183944702,0.9944220185279846,0.9981290102005005],"type":"VEC3","bufferView":0,"byteOffset":7704},{"name":"grp1_1_texcoords","componentType":5126,"count":642,"min":[0.06102989986538887,0.18267999589443207],"max":[0.9380930066108704,0.930683970451355],"type":"VEC2","bufferView":1,"byteOffset":0},{"name":"grp1_1_0_indices","componentType":5123,"count":3825,"min":[0],"max":[641],"type":"SCALAR","bufferView":2,"byteOffset":0}],"asset":{"generator":"obj2gltf","version":"2.0"},"buffers":[{"name":"input","byteLength":28196,"uri":"data:application/octet-stream;base64,"}],"bufferViews":[{"name":"bufferView_0","buffer":0,"byteLength":15408,"byteOffset":0,"byteStride":12,"target":34962},{"name":"bufferView_1","buffer":0,"byteLength":5136,"byteOffset":15408,"byteStride":8,"target":34962},{"name":"bufferView_2","buffer":0,"byteLength":7652,"byteOffset":20544,"target":34963}],"materials":[{"name":"mtl1","pbrMetallicRoughness":{"baseColorFactor":[0.5,0.5,0.5,1],"metallicFactor":0,"roughnessFactor":1},"emissiveFactor":[0,0,0],"alphaMode":"OPAQUE","doubleSided":false}],"meshes":[{"name":"grp1_1","primitives":[{"attributes":{"POSITION":0,"NORMAL":1,"TEXCOORD_0":2},"indices":3,"material":0,"mode":4}]}],"nodes":[{"name":"grp1","mesh":0}],"scene":0,"scenes":[{"nodes":[0]}]}
